<svg width="20" height="14" viewBox="0 0 20 14" fill="none" xmlns="http://www.w3.org/2000/svg">
<path d="M16.125 5.36659C15.5583 2.49159 13.0333 0.333252 10 0.333252C7.59167 0.333252 5.5 1.69992 4.45833 3.69992C1.95 3.96659 0 6.09159 0 8.66658C0 11.4249 2.24167 13.6666 5 13.6666H15.8333C18.1333 13.6666 20 11.7999 20 9.49992C20 7.29992 18.2917 5.51659 16.125 5.36659ZM15.8333 11.9999H5C3.15833 11.9999 1.66667 10.5083 1.66667 8.66658C1.66667 6.95825 2.94167 5.53325 4.63333 5.35825L5.525 5.26659L5.94167 4.47492C6.73333 2.94992 8.28333 1.99992 10 1.99992C12.1833 1.99992 14.0667 3.54992 14.4917 5.69159L14.7417 6.94159L16.0167 7.03325C17.3167 7.11659 18.3333 8.20825 18.3333 9.49992C18.3333 10.8749 17.2083 11.9999 15.8333 11.9999ZM11.2083 5.33325H8.79167V7.83325H6.66667L10 11.1666L13.3333 7.83325H11.2083V5.33325Z" fill="black"/>
</svg>
