<svg width="18" height="18" viewBox="0 0 18 18" fill="none" xmlns="http://www.w3.org/2000/svg">
<path d="M9.00008 0.666626C4.40008 0.666626 0.666748 4.39996 0.666748 8.99996C0.666748 13.6 4.40008 17.3333 9.00008 17.3333C13.6001 17.3333 17.3334 13.6 17.3334 8.99996C17.3334 4.39996 13.6001 0.666626 9.00008 0.666626ZM9.75841 14.125C9.50008 14.3833 9.05008 14.2 9.05008 13.8333V13.1666C9.03341 13.1666 9.01675 13.1666 9.00008 13.1666C7.93341 13.1666 6.86675 12.7583 6.05008 11.95C4.85841 10.7583 4.54175 9.01663 5.10008 7.53329C5.25841 7.10829 5.81675 6.99996 6.13341 7.32496C6.31675 7.50829 6.35841 7.77496 6.27508 8.00829C5.89175 9.04163 6.10841 10.2416 6.94175 11.075C7.52508 11.6583 8.29175 11.9333 9.05841 11.9166V11.1333C9.05841 10.7583 9.50841 10.575 9.76675 10.8416L11.1167 12.1916C11.2834 12.3583 11.2834 12.6166 11.1167 12.7833L9.75841 14.125ZM11.8667 10.6833C11.6834 10.5 11.6417 10.2333 11.7251 9.99996C12.1084 8.96663 11.8917 7.76663 11.0584 6.93329C10.4751 6.34996 9.70841 6.06663 8.95008 6.08329V6.86663C8.95008 7.24163 8.50008 7.42496 8.24175 7.15829L6.88341 5.81663C6.71675 5.64996 6.71675 5.39163 6.88341 5.22496L8.23341 3.87496C8.49175 3.61663 8.94175 3.79996 8.94175 4.16663V4.84163C10.0251 4.82496 11.1167 5.21663 11.9417 6.04996C13.1334 7.24163 13.4501 8.98329 12.8917 10.4666C12.7334 10.9 12.1834 11.0083 11.8667 10.6833Z" fill="black"/>
</svg>
